<svg width="252" height="76" viewBox="0 0 252 76" fill="none" xmlns="http://www.w3.org/2000/svg">
<g clip-path="url(#clip0_588_910)">
<path d="M21.7983 11.7894C21.4065 10.4385 20.6937 9.20245 19.7207 8.18669C18.7477 7.17092 17.5434 6.40563 16.2106 5.95612C14.8938 5.57283 13.5097 5.47865 12.1532 5.68001C10.7966 5.88138 9.49958 6.37354 8.35091 7.12278C8.25639 7.2175 8.13787 7.28469 8.00805 7.31714C7.87824 7.3496 7.74204 7.34609 7.61407 7.30699C7.35607 7.22341 7.12362 7.07549 6.93863 6.87717C6.80397 6.63419 6.76042 6.35114 6.81582 6.07892C6.85101 5.94826 6.9128 5.82628 6.99733 5.72062C7.08186 5.61495 7.1873 5.52789 7.30705 5.46489C10.5614 3.56138 13.7544 3.07015 16.8246 4.05261C18.3361 4.55536 19.7161 5.38974 20.8635 6.49466C22.0109 7.59959 22.8968 8.9471 23.4562 10.4386H27.5702C26.729 7.12031 24.7011 4.22526 21.8701 2.30077C19.039 0.376283 15.601 -0.444251 12.206 -0.00569532C8.81093 0.43286 5.69423 2.10011 3.44514 4.68083C1.19605 7.26155 -0.0295595 10.5769 3.54369e-05 14C3.54369e-05 14.5526 0.0614389 15.0438 0.0614389 15.5965H5.28074C5.48007 15.5852 5.67768 15.6389 5.8438 15.7497C6.00992 15.8604 6.13556 16.0222 6.20179 16.2105C6.60284 17.5568 7.31887 18.7881 8.29059 19.8025C9.2623 20.817 10.4617 21.5853 11.7895 22.0438C13.1063 22.4271 14.4903 22.5213 15.8469 22.3199C17.2035 22.1186 18.5005 21.6264 19.6492 20.8772C19.7437 20.7825 19.8622 20.7153 19.992 20.6828C20.1218 20.6504 20.258 20.6539 20.386 20.693C20.644 20.7765 20.8765 20.9245 21.0614 21.1228C21.1961 21.3658 21.2397 21.6488 21.1842 21.921C21.1491 22.0517 21.0873 22.1737 21.0027 22.2793C20.9182 22.385 20.8128 22.4721 20.693 22.5351C18.8421 23.7805 16.6608 24.4434 14.4299 24.4386C13.3272 24.4303 12.2314 24.2649 11.1755 23.9473C9.65762 23.4566 8.27154 22.6264 7.12247 21.5199C5.9734 20.4134 5.09156 19.0596 4.5439 17.5614H0.491263C1.37895 20.8251 3.41814 23.6571 6.23189 25.5339C9.04565 27.4107 12.4437 28.2054 15.798 27.7712C19.1523 27.3369 22.2359 25.703 24.4789 23.1715C26.722 20.64 27.9727 17.3821 28 14C28.0115 13.4875 27.991 12.9748 27.9386 12.4649H22.7807C22.5714 12.4511 22.3696 12.381 22.1967 12.2621C22.0238 12.1433 21.8862 11.98 21.7983 11.7894Z" fill="#100A42"/>
<path d="M14.0594 20.1247C15.2682 20.1131 16.4466 19.744 17.4461 19.064C18.4455 18.3839 19.2214 17.4233 19.676 16.3031C20.1305 15.183 20.2435 13.9533 20.0005 12.7691C19.7576 11.5849 19.1696 10.499 18.3107 9.6483C17.4518 8.79759 16.3604 8.22006 15.1739 7.98846C13.9874 7.75686 12.7589 7.88154 11.6432 8.34681C10.5274 8.81208 9.57424 9.59712 8.90379 10.6031C8.23333 11.609 7.87554 12.7908 7.87549 13.9997C7.87545 14.809 8.03581 15.6104 8.3473 16.3573C8.65878 17.1043 9.11522 17.7822 9.69023 18.3517C10.2652 18.9212 10.9474 19.3712 11.6974 19.6755C12.4473 19.9798 13.2501 20.1325 14.0594 20.1247Z" fill="white"/>
</g>
<path d="M44.864 19V7.32H47.488V19H44.864ZM37.312 19V7.32H39.936V19H37.312ZM39.472 14.28V11.976H45.328V14.28H39.472ZM53.9809 19.304C53.2342 19.304 52.5729 19.176 51.9969 18.92C51.4315 18.664 50.9569 18.3227 50.5729 17.896C50.1995 17.4587 49.9115 16.9733 49.7089 16.44C49.5169 15.896 49.4209 15.3413 49.4209 14.776V14.456C49.4209 13.8693 49.5169 13.3093 49.7089 12.776C49.9115 12.232 50.1995 11.7467 50.5729 11.32C50.9462 10.8933 51.4102 10.5573 51.9649 10.312C52.5302 10.056 53.1702 9.928 53.8849 9.928C54.8235 9.928 55.6129 10.1413 56.2529 10.568C56.9035 10.984 57.3995 11.5333 57.7409 12.216C58.0822 12.888 58.2529 13.624 58.2529 14.424V15.288H50.4929V13.832H56.7009L55.8689 14.504C55.8689 13.9813 55.7942 13.5333 55.6449 13.16C55.4955 12.7867 55.2715 12.504 54.9729 12.312C54.6849 12.1093 54.3222 12.008 53.8849 12.008C53.4369 12.008 53.0582 12.1093 52.7489 12.312C52.4395 12.5147 52.2049 12.8133 52.0449 13.208C51.8849 13.592 51.8049 14.0667 51.8049 14.632C51.8049 15.1547 51.8795 15.6133 52.0289 16.008C52.1782 16.392 52.4129 16.6907 52.7329 16.904C53.0529 17.1173 53.4689 17.224 53.9809 17.224C54.4502 17.224 54.8342 17.1333 55.1329 16.952C55.4315 16.7707 55.6342 16.5467 55.7409 16.28H58.0929C57.9649 16.8667 57.7142 17.3893 57.3409 17.848C56.9675 18.3067 56.4982 18.664 55.9329 18.92C55.3675 19.176 54.7169 19.304 53.9809 19.304ZM60.0613 19V7.32H62.6373V19H60.0613ZM59.0213 9.208V7.32H62.6373V9.208H59.0213ZM64.9961 22.2V10.232H67.0281V14.024L66.7561 14.008C66.7988 13.1333 66.9801 12.3973 67.3001 11.8C67.6201 11.192 68.0521 10.7387 68.5961 10.44C69.1401 10.1307 69.7535 9.976 70.4361 9.976C71.0441 9.976 71.5935 10.088 72.0841 10.312C72.5855 10.536 73.0121 10.8507 73.3641 11.256C73.7268 11.6507 73.9988 12.12 74.1801 12.664C74.3721 13.1973 74.4681 13.784 74.4681 14.424V14.792C74.4681 15.4213 74.3775 16.0133 74.1961 16.568C74.0148 17.112 73.7481 17.5867 73.3961 17.992C73.0548 18.3973 72.6335 18.7173 72.1321 18.952C71.6415 19.176 71.0761 19.288 70.4361 19.288C69.7748 19.288 69.1775 19.1547 68.6441 18.888C68.1215 18.6107 67.7001 18.1947 67.3801 17.64C67.0601 17.0747 66.8841 16.36 66.8521 15.496L67.5561 16.456V22.2H64.9961ZM69.7161 17.144C70.1535 17.144 70.5321 17.0373 70.8521 16.824C71.1828 16.6107 71.4388 16.312 71.6201 15.928C71.8015 15.544 71.8921 15.1013 71.8921 14.6C71.8921 14.0987 71.8015 13.6613 71.6201 13.288C71.4388 12.9147 71.1881 12.6267 70.8681 12.424C70.5481 12.2107 70.1641 12.104 69.7161 12.104C69.3321 12.104 68.9695 12.1947 68.6281 12.376C68.2868 12.5573 68.0095 12.8187 67.7961 13.16C67.5935 13.4907 67.4921 13.896 67.4921 14.376V14.968C67.4921 15.4267 67.5988 15.8213 67.8121 16.152C68.0361 16.472 68.3188 16.7173 68.6601 16.888C69.0015 17.0587 69.3535 17.144 69.7161 17.144ZM76.3901 19V7.32H80.0061L82.6781 13.88H82.9821L85.6221 7.32H89.3021V19H86.7101V9.032L87.0781 9.064L83.9901 16.632H81.4941L78.3901 9.064L78.7901 9.032V19H76.3901ZM95.7934 19.304C95.0467 19.304 94.3854 19.176 93.8094 18.92C93.244 18.664 92.7694 18.3227 92.3854 17.896C92.012 17.4587 91.724 16.9733 91.5214 16.44C91.3294 15.896 91.2334 15.3413 91.2334 14.776V14.456C91.2334 13.8693 91.3294 13.3093 91.5214 12.776C91.724 12.232 92.012 11.7467 92.3854 11.32C92.7587 10.8933 93.2227 10.5573 93.7774 10.312C94.3427 10.056 94.9827 9.928 95.6974 9.928C96.636 9.928 97.4254 10.1413 98.0654 10.568C98.716 10.984 99.212 11.5333 99.5534 12.216C99.8947 12.888 100.065 13.624 100.065 14.424V15.288H92.3054V13.832H98.5134L97.6814 14.504C97.6814 13.9813 97.6067 13.5333 97.4574 13.16C97.308 12.7867 97.084 12.504 96.7854 12.312C96.4974 12.1093 96.1347 12.008 95.6974 12.008C95.2494 12.008 94.8707 12.1093 94.5614 12.312C94.252 12.5147 94.0174 12.8133 93.8574 13.208C93.6974 13.592 93.6174 14.0667 93.6174 14.632C93.6174 15.1547 93.692 15.6133 93.8414 16.008C93.9907 16.392 94.2254 16.6907 94.5454 16.904C94.8654 17.1173 95.2814 17.224 95.7934 17.224C96.2627 17.224 96.6467 17.1333 96.9454 16.952C97.244 16.7707 97.4467 16.5467 97.5534 16.28H99.9054C99.7774 16.8667 99.5267 17.3893 99.1534 17.848C98.78 18.3067 98.3107 18.664 97.7454 18.92C97.18 19.176 96.5294 19.304 95.7934 19.304ZM107.506 19.304C106.45 19.304 105.527 19.1227 104.738 18.76C103.959 18.3867 103.314 17.9013 102.802 17.304C102.29 16.696 101.906 16.04 101.65 15.336C101.404 14.632 101.282 13.9547 101.282 13.304V12.952C101.282 12.2267 101.41 11.512 101.666 10.808C101.932 10.0933 102.327 9.448 102.85 8.872C103.372 8.296 104.023 7.83733 104.802 7.496C105.58 7.144 106.482 6.968 107.506 6.968C108.53 6.968 109.431 7.144 110.21 7.496C110.988 7.83733 111.639 8.296 112.162 8.872C112.684 9.448 113.079 10.0933 113.346 10.808C113.612 11.512 113.746 12.2267 113.746 12.952V13.304C113.746 13.9547 113.618 14.632 113.362 15.336C113.106 16.04 112.722 16.696 112.21 17.304C111.698 17.9013 111.047 18.3867 110.258 18.76C109.479 19.1227 108.562 19.304 107.506 19.304ZM107.506 16.856C108.06 16.856 108.556 16.76 108.994 16.568C109.442 16.376 109.82 16.1093 110.13 15.768C110.45 15.4267 110.69 15.032 110.85 14.584C111.01 14.136 111.09 13.656 111.09 13.144C111.09 12.6 111.004 12.104 110.834 11.656C110.674 11.1973 110.434 10.8027 110.114 10.472C109.804 10.1307 109.431 9.86933 108.994 9.688C108.556 9.50667 108.06 9.416 107.506 9.416C106.951 9.416 106.455 9.50667 106.018 9.688C105.58 9.86933 105.202 10.1307 104.882 10.472C104.572 10.8027 104.338 11.1973 104.178 11.656C104.018 12.104 103.938 12.6 103.938 13.144C103.938 13.656 104.018 14.136 104.178 14.584C104.338 15.032 104.572 15.4267 104.882 15.768C105.202 16.1093 105.58 16.376 106.018 16.568C106.455 16.76 106.951 16.856 107.506 16.856ZM118.55 19.272C117.537 19.272 116.758 18.9467 116.214 18.296C115.67 17.6347 115.398 16.6427 115.398 15.32V10.232H117.958V15.448C117.958 15.9173 118.091 16.2907 118.358 16.568C118.625 16.8453 118.982 16.984 119.43 16.984C119.889 16.984 120.262 16.84 120.55 16.552C120.838 16.264 120.982 15.8747 120.982 15.384V10.232H123.542V19H121.51V15.304H121.686C121.686 16.1893 121.569 16.9307 121.334 17.528C121.11 18.1147 120.774 18.552 120.326 18.84C119.878 19.128 119.323 19.272 118.662 19.272H118.55ZM129.886 19.112C129.001 19.112 128.286 19.0053 127.742 18.792C127.198 18.568 126.798 18.2 126.542 17.688C126.297 17.1653 126.174 16.4613 126.174 15.576V7.864H128.558V15.672C128.558 16.088 128.665 16.408 128.878 16.632C129.102 16.8453 129.417 16.952 129.822 16.952H131.118V19.112H129.886ZM124.846 12.104V10.232H131.118V12.104H124.846Z" fill="#120B48"/>
<path d="M210 16.5C211.381 16.5 212.5 15.3807 212.5 14C212.5 12.6193 211.381 11.5 210 11.5C208.619 11.5 207.5 12.6193 207.5 14C207.5 15.3807 208.619 16.5 210 16.5Z" stroke="#120B48" stroke-width="1.5" stroke-miterlimit="10" stroke-linecap="round" stroke-linejoin="round"/>
<path d="M201.667 14.7334V13.2667C201.667 12.4 202.375 11.6834 203.25 11.6834C204.758 11.6834 205.375 10.6167 204.617 9.30836C204.183 8.55836 204.442 7.58336 205.2 7.15003L206.642 6.32503C207.3 5.93336 208.15 6.1667 208.542 6.82503L208.633 6.98336C209.383 8.2917 210.617 8.2917 211.375 6.98336L211.467 6.82503C211.858 6.1667 212.708 5.93336 213.367 6.32503L214.808 7.15003C215.567 7.58336 215.825 8.55836 215.392 9.30836C214.633 10.6167 215.25 11.6834 216.758 11.6834C217.625 11.6834 218.342 12.3917 218.342 13.2667V14.7334C218.342 15.6 217.633 16.3167 216.758 16.3167C215.25 16.3167 214.633 17.3834 215.392 18.6917C215.825 19.45 215.567 20.4167 214.808 20.85L213.367 21.675C212.708 22.0667 211.858 21.8334 211.467 21.175L211.375 21.0167C210.625 19.7084 209.392 19.7084 208.633 21.0167L208.542 21.175C208.15 21.8334 207.3 22.0667 206.642 21.675L205.2 20.85C204.442 20.4167 204.183 19.4417 204.617 18.6917C205.375 17.3834 204.758 16.3167 203.25 16.3167C202.375 16.3167 201.667 15.6 201.667 14.7334Z" stroke="#120B48" stroke-width="1.5" stroke-miterlimit="10" stroke-linecap="round" stroke-linejoin="round"/>
<path d="M242 22.3334C246.583 22.3334 250.333 18.5834 250.333 14.0001C250.333 9.41675 246.583 5.66675 242 5.66675C237.417 5.66675 233.667 9.41675 233.667 14.0001C233.667 18.5834 237.417 22.3334 242 22.3334Z" stroke="#B6B3C6" stroke-width="1.5" stroke-linecap="round" stroke-linejoin="round"/>
<path d="M239.642 16.3583L244.358 11.6416" stroke="#B6B3C6" stroke-width="1.5" stroke-linecap="round" stroke-linejoin="round"/>
<path d="M244.358 16.3583L239.642 11.6416" stroke="#B6B3C6" stroke-width="1.5" stroke-linecap="round" stroke-linejoin="round"/>
<path d="M8.008 47.76V48.81H4.788V57H3.668V48.81H0.448V47.76H8.008ZM9.47778 57V46.78H10.5978V51.05C10.8404 50.63 11.1624 50.3267 11.5638 50.14C11.9651 49.9533 12.4038 49.86 12.8798 49.86C13.3838 49.86 13.8411 49.958 14.2518 50.154C14.6624 50.3407 14.9891 50.63 15.2318 51.022C15.4838 51.414 15.6098 51.9133 15.6098 52.52V57H14.4898V52.912C14.4898 52.1373 14.3218 51.6007 13.9858 51.302C13.6591 50.994 13.2531 50.84 12.7678 50.84C12.4318 50.84 12.0958 50.9193 11.7598 51.078C11.4238 51.2367 11.1438 51.498 10.9198 51.862C10.7051 52.2167 10.5978 52.6927 10.5978 53.29V57H9.47778ZM18.7058 48.656C18.4538 48.656 18.2484 48.5813 18.0898 48.432C17.9404 48.2733 17.8658 48.068 17.8658 47.816C17.8658 47.564 17.9404 47.3633 18.0898 47.214C18.2484 47.0553 18.4538 46.976 18.7058 46.976C18.9578 46.976 19.1584 47.0553 19.3078 47.214C19.4664 47.3633 19.5458 47.564 19.5458 47.816C19.5458 48.068 19.4664 48.2733 19.3078 48.432C19.1584 48.5813 18.9578 48.656 18.7058 48.656ZM19.2658 50V57H18.1458V50H19.2658ZM24.3845 57.14C23.7032 57.14 23.0732 56.9953 22.4945 56.706C21.9252 56.4167 21.4865 56.006 21.1785 55.474L22.1305 54.788C22.3358 55.2173 22.6345 55.5533 23.0265 55.796C23.4278 56.0387 23.9085 56.16 24.4685 56.16C24.9632 56.16 25.3505 56.0667 25.6305 55.88C25.9105 55.684 26.0505 55.432 26.0505 55.124C26.0505 54.928 25.9852 54.7507 25.8545 54.592C25.7332 54.424 25.4952 54.3027 25.1405 54.228L23.4605 53.878C22.7792 53.738 22.2892 53.5047 21.9905 53.178C21.7012 52.8513 21.5565 52.4453 21.5565 51.96C21.5565 51.5773 21.6638 51.2273 21.8785 50.91C22.1025 50.5927 22.4152 50.3407 22.8165 50.154C23.2272 49.958 23.7078 49.86 24.2585 49.86C24.9492 49.86 25.5325 49.9953 26.0085 50.266C26.4845 50.5367 26.8392 50.9193 27.0725 51.414L26.1345 52.03C25.9758 51.6193 25.7192 51.3207 25.3645 51.134C25.0098 50.938 24.6412 50.84 24.2585 50.84C23.9225 50.84 23.6332 50.8867 23.3905 50.98C23.1572 51.0733 22.9752 51.204 22.8445 51.372C22.7232 51.5307 22.6625 51.7127 22.6625 51.918C22.6625 52.1233 22.7325 52.3147 22.8725 52.492C23.0125 52.66 23.2738 52.7813 23.6565 52.856L25.4065 53.22C26.0598 53.3507 26.5172 53.5653 26.7785 53.864C27.0398 54.1627 27.1705 54.5267 27.1705 54.956C27.1705 55.3947 27.0538 55.782 26.8205 56.118C26.5872 56.4447 26.2605 56.6967 25.8405 56.874C25.4205 57.0513 24.9352 57.14 24.3845 57.14ZM36.9448 57.14C36.2821 57.14 35.6895 56.9953 35.1668 56.706C34.6535 56.4167 34.2521 56.0013 33.9628 55.46C33.6735 54.9093 33.5288 54.256 33.5288 53.5C33.5288 52.744 33.6735 52.0953 33.9628 51.554C34.2521 51.0033 34.6488 50.5833 35.1528 50.294C35.6568 50.0047 36.2308 49.86 36.8748 49.86C37.5281 49.86 38.0835 50 38.5408 50.28C39.0075 50.56 39.3621 50.9427 39.6048 51.428C39.8475 51.904 39.9688 52.4407 39.9688 53.038C39.9688 53.1967 39.9641 53.3413 39.9548 53.472C39.9455 53.6027 39.9315 53.7193 39.9128 53.822H34.2568V52.828H39.4228L38.8488 52.94C38.8488 52.268 38.6621 51.75 38.2888 51.386C37.9248 51.022 37.4441 50.84 36.8468 50.84C36.3895 50.84 35.9928 50.9473 35.6568 51.162C35.3301 51.3673 35.0735 51.6707 34.8868 52.072C34.7095 52.464 34.6208 52.94 34.6208 53.5C34.6208 54.0507 34.7141 54.5267 34.9008 54.928C35.0875 55.3293 35.3488 55.6373 35.6848 55.852C36.0301 56.0573 36.4408 56.16 36.9168 56.16C37.4301 56.16 37.8455 56.062 38.1628 55.866C38.4895 55.67 38.7508 55.404 38.9468 55.068L39.8288 55.586C39.6515 55.9033 39.4228 56.1787 39.1428 56.412C38.8721 56.6453 38.5501 56.8273 38.1768 56.958C37.8128 57.0793 37.4021 57.14 36.9448 57.14ZM42.5111 50L44.5971 52.926L44.6671 53.024L47.5371 57H46.1651L43.9951 53.962L43.8691 53.808L41.1111 50H42.5111ZM47.4951 50L44.7231 53.738H44.6531L42.2451 57H40.9431L43.9951 52.982H44.0791L46.1791 50H47.4951ZM50.956 48.012V55.068C50.956 55.4133 51.054 55.67 51.25 55.838C51.446 56.006 51.698 56.09 52.006 56.09C52.2766 56.09 52.51 56.0433 52.706 55.95C52.902 55.8567 53.0793 55.7307 53.238 55.572L53.63 56.51C53.4153 56.706 53.1586 56.86 52.86 56.972C52.5706 57.084 52.2346 57.14 51.852 57.14C51.4973 57.14 51.166 57.0793 50.858 56.958C50.55 56.8273 50.3026 56.6267 50.116 56.356C49.9386 56.076 49.8453 55.712 49.836 55.264V48.32L50.956 48.012ZM53.504 50V50.966H48.436V50H53.504ZM58.0952 57.14C57.4325 57.14 56.8399 56.9953 56.3172 56.706C55.8039 56.4167 55.4025 56.0013 55.1132 55.46C54.8239 54.9093 54.6792 54.256 54.6792 53.5C54.6792 52.744 54.8239 52.0953 55.1132 51.554C55.4025 51.0033 55.7992 50.5833 56.3032 50.294C56.8072 50.0047 57.3812 49.86 58.0252 49.86C58.6785 49.86 59.2339 50 59.6912 50.28C60.1579 50.56 60.5125 50.9427 60.7552 51.428C60.9979 51.904 61.1192 52.4407 61.1192 53.038C61.1192 53.1967 61.1145 53.3413 61.1052 53.472C61.0959 53.6027 61.0819 53.7193 61.0632 53.822H55.4072V52.828H60.5732L59.9992 52.94C59.9992 52.268 59.8125 51.75 59.4392 51.386C59.0752 51.022 58.5945 50.84 57.9972 50.84C57.5399 50.84 57.1432 50.9473 56.8072 51.162C56.4805 51.3673 56.2239 51.6707 56.0372 52.072C55.8599 52.464 55.7712 52.94 55.7712 53.5C55.7712 54.0507 55.8645 54.5267 56.0512 54.928C56.2379 55.3293 56.4992 55.6373 56.8352 55.852C57.1805 56.0573 57.5912 56.16 58.0672 56.16C58.5805 56.16 58.9959 56.062 59.3132 55.866C59.6399 55.67 59.9012 55.404 60.0972 55.068L60.9792 55.586C60.8019 55.9033 60.5732 56.1787 60.2932 56.412C60.0225 56.6453 59.7005 56.8273 59.3272 56.958C58.9632 57.0793 58.5525 57.14 58.0952 57.14ZM63.2493 57V50H64.2293L64.3273 51.568L64.1453 51.414C64.2946 51.0407 64.4953 50.742 64.7473 50.518C64.9993 50.2847 65.2886 50.1167 65.6153 50.014C65.9513 49.9113 66.2966 49.86 66.6513 49.86C67.1553 49.86 67.6126 49.958 68.0233 50.154C68.4339 50.3407 68.7606 50.63 69.0033 51.022C69.2553 51.414 69.3813 51.9133 69.3813 52.52V57H68.2613V52.912C68.2613 52.1373 68.0933 51.6007 67.7573 51.302C67.4306 50.994 67.0246 50.84 66.5393 50.84C66.2033 50.84 65.8673 50.9193 65.5313 51.078C65.1953 51.2367 64.9153 51.4933 64.6913 51.848C64.4766 52.2027 64.3693 52.6787 64.3693 53.276V57H63.2493ZM74.4372 57.14C73.7559 57.14 73.1259 56.9953 72.5472 56.706C71.9779 56.4167 71.5392 56.006 71.2312 55.474L72.1832 54.788C72.3886 55.2173 72.6872 55.5533 73.0792 55.796C73.4806 56.0387 73.9612 56.16 74.5212 56.16C75.0159 56.16 75.4032 56.0667 75.6832 55.88C75.9632 55.684 76.1032 55.432 76.1032 55.124C76.1032 54.928 76.0379 54.7507 75.9072 54.592C75.7859 54.424 75.5479 54.3027 75.1932 54.228L73.5132 53.878C72.8319 53.738 72.3419 53.5047 72.0432 53.178C71.7539 52.8513 71.6092 52.4453 71.6092 51.96C71.6092 51.5773 71.7166 51.2273 71.9312 50.91C72.1552 50.5927 72.4679 50.3407 72.8692 50.154C73.2799 49.958 73.7606 49.86 74.3112 49.86C75.0019 49.86 75.5852 49.9953 76.0612 50.266C76.5372 50.5367 76.8919 50.9193 77.1252 51.414L76.1872 52.03C76.0286 51.6193 75.7719 51.3207 75.4172 51.134C75.0626 50.938 74.6939 50.84 74.3112 50.84C73.9752 50.84 73.6859 50.8867 73.4432 50.98C73.2099 51.0733 73.0279 51.204 72.8972 51.372C72.7759 51.5307 72.7152 51.7127 72.7152 51.918C72.7152 52.1233 72.7852 52.3147 72.9252 52.492C73.0652 52.66 73.3266 52.7813 73.7092 52.856L75.4592 53.22C76.1126 53.3507 76.5699 53.5653 76.8312 53.864C77.0926 54.1627 77.2232 54.5267 77.2232 54.956C77.2232 55.3947 77.1066 55.782 76.8732 56.118C76.6399 56.4447 76.3132 56.6967 75.8932 56.874C75.4732 57.0513 74.9879 57.14 74.4372 57.14ZM79.86 48.656C79.608 48.656 79.4027 48.5813 79.244 48.432C79.0947 48.2733 79.02 48.068 79.02 47.816C79.02 47.564 79.0947 47.3633 79.244 47.214C79.4027 47.0553 79.608 46.976 79.86 46.976C80.112 46.976 80.3127 47.0553 80.462 47.214C80.6207 47.3633 80.7 47.564 80.7 47.816C80.7 48.068 80.6207 48.2733 80.462 48.432C80.3127 48.5813 80.112 48.656 79.86 48.656ZM80.42 50V57H79.3V50H80.42ZM85.9168 49.86C86.5795 49.86 87.1628 50.0047 87.6668 50.294C88.1801 50.5833 88.5815 51.0033 88.8708 51.554C89.1601 52.0953 89.3048 52.744 89.3048 53.5C89.3048 54.256 89.1601 54.9093 88.8708 55.46C88.5815 56.0013 88.1801 56.4167 87.6668 56.706C87.1628 56.9953 86.5795 57.14 85.9168 57.14C85.2635 57.14 84.6801 56.9953 84.1668 56.706C83.6535 56.4167 83.2521 56.0013 82.9628 55.46C82.6735 54.9093 82.5288 54.256 82.5288 53.5C82.5288 52.744 82.6735 52.0953 82.9628 51.554C83.2521 51.0033 83.6535 50.5833 84.1668 50.294C84.6801 50.0047 85.2635 49.86 85.9168 49.86ZM85.9168 50.826C85.4408 50.826 85.0348 50.9333 84.6988 51.148C84.3628 51.3627 84.1015 51.6707 83.9148 52.072C83.7375 52.464 83.6488 52.94 83.6488 53.5C83.6488 54.0507 83.7375 54.5267 83.9148 54.928C84.1015 55.3293 84.3628 55.6373 84.6988 55.852C85.0348 56.0667 85.4408 56.174 85.9168 56.174C86.3928 56.174 86.7988 56.0667 87.1348 55.852C87.4708 55.6373 87.7275 55.3293 87.9048 54.928C88.0915 54.5267 88.1848 54.0507 88.1848 53.5C88.1848 52.94 88.0915 52.464 87.9048 52.072C87.7275 51.6707 87.4708 51.3627 87.1348 51.148C86.7988 50.9333 86.3928 50.826 85.9168 50.826ZM91.4133 57V50H92.3933L92.4913 51.568L92.3093 51.414C92.4587 51.0407 92.6593 50.742 92.9113 50.518C93.1633 50.2847 93.4527 50.1167 93.7793 50.014C94.1153 49.9113 94.4607 49.86 94.8153 49.86C95.3193 49.86 95.7767 49.958 96.1873 50.154C96.598 50.3407 96.9247 50.63 97.1673 51.022C97.4193 51.414 97.5453 51.9133 97.5453 52.52V57H96.4253V52.912C96.4253 52.1373 96.2573 51.6007 95.9213 51.302C95.5947 50.994 95.1887 50.84 94.7033 50.84C94.3673 50.84 94.0313 50.9193 93.6953 51.078C93.3593 51.2367 93.0793 51.4933 92.8553 51.848C92.6407 52.2027 92.5333 52.6787 92.5333 53.276V57H91.4133ZM104.853 57V46.78H105.973V51.05C106.215 50.63 106.537 50.3267 106.939 50.14C107.34 49.9533 107.779 49.86 108.255 49.86C108.759 49.86 109.216 49.958 109.627 50.154C110.037 50.3407 110.364 50.63 110.607 51.022C110.859 51.414 110.985 51.9133 110.985 52.52V57H109.865V52.912C109.865 52.1373 109.697 51.6007 109.361 51.302C109.034 50.994 108.628 50.84 108.143 50.84C107.807 50.84 107.471 50.9193 107.135 51.078C106.799 51.2367 106.519 51.498 106.295 51.862C106.08 52.2167 105.973 52.6927 105.973 53.29V57H104.853ZM116.447 57.14C115.784 57.14 115.191 56.9953 114.669 56.706C114.155 56.4167 113.754 56.0013 113.465 55.46C113.175 54.9093 113.031 54.256 113.031 53.5C113.031 52.744 113.175 52.0953 113.465 51.554C113.754 51.0033 114.151 50.5833 114.655 50.294C115.159 50.0047 115.733 49.86 116.377 49.86C117.03 49.86 117.585 50 118.043 50.28C118.509 50.56 118.864 50.9427 119.107 51.428C119.349 51.904 119.471 52.4407 119.471 53.038C119.471 53.1967 119.466 53.3413 119.457 53.472C119.447 53.6027 119.433 53.7193 119.415 53.822H113.759V52.828H118.925L118.351 52.94C118.351 52.268 118.164 51.75 117.791 51.386C117.427 51.022 116.946 50.84 116.349 50.84C115.891 50.84 115.495 50.9473 115.159 51.162C114.832 51.3673 114.575 51.6707 114.389 52.072C114.211 52.464 114.123 52.94 114.123 53.5C114.123 54.0507 114.216 54.5267 114.403 54.928C114.589 55.3293 114.851 55.6373 115.187 55.852C115.532 56.0573 115.943 56.16 116.419 56.16C116.932 56.16 117.347 56.062 117.665 55.866C117.991 55.67 118.253 55.404 118.449 55.068L119.331 55.586C119.153 55.9033 118.925 56.1787 118.645 56.412C118.374 56.6453 118.052 56.8273 117.679 56.958C117.315 57.0793 116.904 57.14 116.447 57.14ZM122.665 46.78V55.222C122.665 55.5767 122.73 55.824 122.861 55.964C122.991 56.0947 123.201 56.16 123.491 56.16C123.677 56.16 123.831 56.146 123.953 56.118C124.074 56.09 124.237 56.0387 124.443 55.964L124.261 56.944C124.111 57.0093 123.948 57.056 123.771 57.084C123.593 57.1213 123.411 57.14 123.225 57.14C122.655 57.14 122.231 56.986 121.951 56.678C121.68 56.37 121.545 55.8987 121.545 55.264V46.78H122.665ZM125.88 59.94V50H126.86L126.958 51.708L126.804 51.512C126.925 51.1853 127.107 50.9007 127.35 50.658C127.593 50.406 127.887 50.21 128.232 50.07C128.577 49.93 128.951 49.86 129.352 49.86C129.921 49.86 130.444 50.0047 130.92 50.294C131.405 50.5833 131.793 50.9987 132.082 51.54C132.371 52.0813 132.516 52.7347 132.516 53.5C132.516 54.256 132.367 54.9093 132.068 55.46C131.779 56.0013 131.391 56.4167 130.906 56.706C130.421 56.9953 129.889 57.14 129.31 57.14C128.731 57.14 128.223 57 127.784 56.72C127.355 56.4307 127.047 56.0667 126.86 55.628L127 55.418V59.94H125.88ZM129.198 56.16C129.889 56.16 130.425 55.9173 130.808 55.432C131.2 54.9467 131.396 54.3027 131.396 53.5C131.396 52.6973 131.205 52.0533 130.822 51.568C130.449 51.0827 129.921 50.84 129.24 50.84C128.792 50.84 128.4 50.952 128.064 51.176C127.728 51.3907 127.467 51.6987 127.28 52.1C127.093 52.492 127 52.9587 127 53.5C127 54.032 127.089 54.4987 127.266 54.9C127.453 55.3013 127.709 55.614 128.036 55.838C128.372 56.0527 128.759 56.16 129.198 56.16ZM137.177 57.14C136.496 57.14 135.866 56.9953 135.287 56.706C134.718 56.4167 134.279 56.006 133.971 55.474L134.923 54.788C135.129 55.2173 135.427 55.5533 135.819 55.796C136.221 56.0387 136.701 56.16 137.261 56.16C137.756 56.16 138.143 56.0667 138.423 55.88C138.703 55.684 138.843 55.432 138.843 55.124C138.843 54.928 138.778 54.7507 138.647 54.592C138.526 54.424 138.288 54.3027 137.933 54.228L136.253 53.878C135.572 53.738 135.082 53.5047 134.783 53.178C134.494 52.8513 134.349 52.4453 134.349 51.96C134.349 51.5773 134.457 51.2273 134.671 50.91C134.895 50.5927 135.208 50.3407 135.609 50.154C136.02 49.958 136.501 49.86 137.051 49.86C137.742 49.86 138.325 49.9953 138.801 50.266C139.277 50.5367 139.632 50.9193 139.865 51.414L138.927 52.03C138.769 51.6193 138.512 51.3207 138.157 51.134C137.803 50.938 137.434 50.84 137.051 50.84C136.715 50.84 136.426 50.8867 136.183 50.98C135.95 51.0733 135.768 51.204 135.637 51.372C135.516 51.5307 135.455 51.7127 135.455 51.918C135.455 52.1233 135.525 52.3147 135.665 52.492C135.805 52.66 136.067 52.7813 136.449 52.856L138.199 53.22C138.853 53.3507 139.31 53.5653 139.571 53.864C139.833 54.1627 139.963 54.5267 139.963 54.956C139.963 55.3947 139.847 55.782 139.613 56.118C139.38 56.4447 139.053 56.6967 138.633 56.874C138.213 57.0513 137.728 57.14 137.177 57.14ZM152.21 50L148.92 58.176C148.743 58.6333 148.547 58.9927 148.332 59.254C148.127 59.5247 147.894 59.716 147.632 59.828C147.38 59.9493 147.086 60.01 146.75 60.01C146.433 60.01 146.139 59.9633 145.868 59.87C145.607 59.786 145.374 59.6693 145.168 59.52L145.476 58.54C145.663 58.708 145.859 58.8293 146.064 58.904C146.279 58.988 146.489 59.03 146.694 59.03C146.937 59.03 147.166 58.9553 147.38 58.806C147.595 58.6567 147.791 58.3533 147.968 57.896L148.332 56.986L147.632 55.32L145.406 50H146.68L148.43 54.564L148.864 55.81L149.368 54.424L151.006 50H152.21ZM156.573 49.86C157.236 49.86 157.819 50.0047 158.323 50.294C158.836 50.5833 159.238 51.0033 159.527 51.554C159.816 52.0953 159.961 52.744 159.961 53.5C159.961 54.256 159.816 54.9093 159.527 55.46C159.238 56.0013 158.836 56.4167 158.323 56.706C157.819 56.9953 157.236 57.14 156.573 57.14C155.92 57.14 155.336 56.9953 154.823 56.706C154.31 56.4167 153.908 56.0013 153.619 55.46C153.33 54.9093 153.185 54.256 153.185 53.5C153.185 52.744 153.33 52.0953 153.619 51.554C153.908 51.0033 154.31 50.5833 154.823 50.294C155.336 50.0047 155.92 49.86 156.573 49.86ZM156.573 50.826C156.097 50.826 155.691 50.9333 155.355 51.148C155.019 51.3627 154.758 51.6707 154.571 52.072C154.394 52.464 154.305 52.94 154.305 53.5C154.305 54.0507 154.394 54.5267 154.571 54.928C154.758 55.3293 155.019 55.6373 155.355 55.852C155.691 56.0667 156.097 56.174 156.573 56.174C157.049 56.174 157.455 56.0667 157.791 55.852C158.127 55.6373 158.384 55.3293 158.561 54.928C158.748 54.5267 158.841 54.0507 158.841 53.5C158.841 52.94 158.748 52.464 158.561 52.072C158.384 51.6707 158.127 51.3627 157.791 51.148C157.455 50.9333 157.049 50.826 156.573 50.826ZM164.604 57.14C164.156 57.14 163.731 57.056 163.33 56.888C162.938 56.72 162.616 56.4493 162.364 56.076C162.121 55.6933 162 55.1987 162 54.592V50H163.12V54.298C163.12 55.0073 163.274 55.4973 163.582 55.768C163.89 56.0293 164.324 56.16 164.884 56.16C165.145 56.16 165.402 56.118 165.654 56.034C165.906 55.9407 166.13 55.8007 166.326 55.614C166.531 55.418 166.69 55.1707 166.802 54.872C166.923 54.5733 166.984 54.2187 166.984 53.808V50H168.104V57H167.124L167.054 55.936C166.811 56.356 166.48 56.664 166.06 56.86C165.649 57.0467 165.164 57.14 164.604 57.14ZM175.482 57V50H176.392L176.546 51.148C176.742 50.7187 177.026 50.3967 177.4 50.182C177.782 49.9673 178.244 49.86 178.786 49.86C178.907 49.86 179.038 49.8693 179.178 49.888C179.327 49.9067 179.453 49.944 179.556 50L179.36 51.022C179.257 50.9847 179.145 50.9567 179.024 50.938C178.902 50.9193 178.73 50.91 178.506 50.91C178.216 50.91 177.922 50.994 177.624 51.162C177.334 51.33 177.092 51.5867 176.896 51.932C176.7 52.268 176.602 52.6973 176.602 53.22V57H175.482ZM183.904 57.14C183.241 57.14 182.648 56.9953 182.126 56.706C181.612 56.4167 181.211 56.0013 180.922 55.46C180.632 54.9093 180.488 54.256 180.488 53.5C180.488 52.744 180.632 52.0953 180.922 51.554C181.211 51.0033 181.608 50.5833 182.112 50.294C182.616 50.0047 183.19 49.86 183.834 49.86C184.487 49.86 185.042 50 185.5 50.28C185.966 50.56 186.321 50.9427 186.564 51.428C186.806 51.904 186.928 52.4407 186.928 53.038C186.928 53.1967 186.923 53.3413 186.914 53.472C186.904 53.6027 186.89 53.7193 186.872 53.822H181.216V52.828H186.382L185.808 52.94C185.808 52.268 185.621 51.75 185.248 51.386C184.884 51.022 184.403 50.84 183.806 50.84C183.348 50.84 182.952 50.9473 182.616 51.162C182.289 51.3673 182.032 51.6707 181.846 52.072C181.668 52.464 181.58 52.94 181.58 53.5C181.58 54.0507 181.673 54.5267 181.86 54.928C182.046 55.3293 182.308 55.6373 182.644 55.852C182.989 56.0573 183.4 56.16 183.876 56.16C184.389 56.16 184.804 56.062 185.122 55.866C185.448 55.67 185.71 55.404 185.906 55.068L186.788 55.586C186.61 55.9033 186.382 56.1787 186.102 56.412C185.831 56.6453 185.509 56.8273 185.136 56.958C184.772 57.0793 184.361 57.14 183.904 57.14ZM191.956 49.86C192.441 49.86 192.866 49.9347 193.23 50.084C193.603 50.2333 193.925 50.448 194.196 50.728C194.467 51.008 194.686 51.3393 194.854 51.722L193.79 52.226C193.641 51.778 193.412 51.4373 193.104 51.204C192.805 50.9613 192.413 50.84 191.928 50.84C191.461 50.84 191.06 50.9473 190.724 51.162C190.388 51.3673 190.131 51.6707 189.954 52.072C189.777 52.464 189.688 52.94 189.688 53.5C189.688 54.0507 189.777 54.5267 189.954 54.928C190.131 55.3293 190.388 55.6373 190.724 55.852C191.06 56.0573 191.461 56.16 191.928 56.16C192.292 56.16 192.605 56.104 192.866 55.992C193.137 55.88 193.356 55.7167 193.524 55.502C193.701 55.2873 193.823 55.026 193.888 54.718L194.924 55.082C194.765 55.5113 194.546 55.88 194.266 56.188C193.995 56.496 193.664 56.734 193.272 56.902C192.889 57.0607 192.451 57.14 191.956 57.14C191.303 57.14 190.719 56.9953 190.206 56.706C189.693 56.4167 189.291 56.0013 189.002 55.46C188.713 54.9093 188.568 54.256 188.568 53.5C188.568 52.744 188.713 52.0953 189.002 51.554C189.291 51.0033 189.693 50.5833 190.206 50.294C190.719 50.0047 191.303 49.86 191.956 49.86ZM199.79 49.86C200.453 49.86 201.036 50.0047 201.54 50.294C202.053 50.5833 202.455 51.0033 202.744 51.554C203.033 52.0953 203.178 52.744 203.178 53.5C203.178 54.256 203.033 54.9093 202.744 55.46C202.455 56.0013 202.053 56.4167 201.54 56.706C201.036 56.9953 200.453 57.14 199.79 57.14C199.137 57.14 198.553 56.9953 198.04 56.706C197.527 56.4167 197.125 56.0013 196.836 55.46C196.547 54.9093 196.402 54.256 196.402 53.5C196.402 52.744 196.547 52.0953 196.836 51.554C197.125 51.0033 197.527 50.5833 198.04 50.294C198.553 50.0047 199.137 49.86 199.79 49.86ZM199.79 50.826C199.314 50.826 198.908 50.9333 198.572 51.148C198.236 51.3627 197.975 51.6707 197.788 52.072C197.611 52.464 197.522 52.94 197.522 53.5C197.522 54.0507 197.611 54.5267 197.788 54.928C197.975 55.3293 198.236 55.6373 198.572 55.852C198.908 56.0667 199.314 56.174 199.79 56.174C200.266 56.174 200.672 56.0667 201.008 55.852C201.344 55.6373 201.601 55.3293 201.778 54.928C201.965 54.5267 202.058 54.0507 202.058 53.5C202.058 52.94 201.965 52.464 201.778 52.072C201.601 51.6707 201.344 51.3627 201.008 51.148C200.672 50.9333 200.266 50.826 199.79 50.826ZM205.286 57V50H206.196L206.35 51.148C206.546 50.7187 206.831 50.3967 207.204 50.182C207.587 49.9673 208.049 49.86 208.59 49.86C208.712 49.86 208.842 49.8693 208.982 49.888C209.132 49.9067 209.258 49.944 209.36 50L209.164 51.022C209.062 50.9847 208.95 50.9567 208.828 50.938C208.707 50.9193 208.534 50.91 208.31 50.91C208.021 50.91 207.727 50.994 207.428 51.162C207.139 51.33 206.896 51.5867 206.7 51.932C206.504 52.268 206.406 52.6973 206.406 53.22V57H205.286ZM213.512 57.14C212.934 57.14 212.402 56.9953 211.916 56.706C211.431 56.4167 211.044 56.0013 210.754 55.46C210.465 54.9093 210.32 54.256 210.32 53.5C210.32 52.7253 210.474 52.0673 210.782 51.526C211.09 50.9847 211.496 50.574 212 50.294C212.504 50.0047 213.046 49.86 213.624 49.86C214.203 49.86 214.702 50.0093 215.122 50.308C215.552 50.6067 215.836 51.0033 215.976 51.498L215.836 51.596V46.78H216.956V57H215.976L215.878 55.306L216.032 55.222C215.967 55.6327 215.808 55.9827 215.556 56.272C215.314 56.552 215.01 56.7667 214.646 56.916C214.292 57.0653 213.914 57.14 213.512 57.14ZM213.624 56.16C214.072 56.16 214.46 56.048 214.786 55.824C215.122 55.6 215.379 55.2827 215.556 54.872C215.743 54.452 215.836 53.962 215.836 53.402C215.836 52.87 215.743 52.4127 215.556 52.03C215.379 51.6473 215.127 51.3533 214.8 51.148C214.483 50.9427 214.11 50.84 213.68 50.84C212.971 50.84 212.42 51.0827 212.028 51.568C211.636 52.0533 211.44 52.6973 211.44 53.5C211.44 54.3027 211.632 54.9467 212.014 55.432C212.397 55.9173 212.934 56.16 213.624 56.16ZM5.39 68.478C5.39 67.9553 5.25 67.554 4.97 67.274C4.69 66.9847 4.29333 66.84 3.78 66.84C3.29467 66.84 2.884 66.9473 2.548 67.162C2.212 67.3673 1.96467 67.7033 1.806 68.17L0.896 67.61C1.08267 67.0873 1.428 66.6673 1.932 66.35C2.436 66.0233 3.06133 65.86 3.808 65.86C4.312 65.86 4.76933 65.9487 5.18 66.126C5.59067 66.294 5.91267 66.5553 6.146 66.91C6.38867 67.2553 6.51 67.7033 6.51 68.254V71.642C6.51 71.978 6.68733 72.146 7.042 72.146C7.21933 72.146 7.392 72.1227 7.56 72.076L7.504 72.958C7.31733 73.0513 7.07467 73.098 6.776 73.098C6.50533 73.098 6.26267 73.0467 6.048 72.944C5.83333 72.8413 5.66533 72.6873 5.544 72.482C5.42267 72.2673 5.362 72.0013 5.362 71.684V71.544L5.642 71.586C5.53 71.95 5.33867 72.2487 5.068 72.482C4.79733 72.706 4.494 72.874 4.158 72.986C3.822 73.0887 3.49067 73.14 3.164 73.14C2.75333 73.14 2.37067 73.07 2.016 72.93C1.66133 72.79 1.37667 72.58 1.162 72.3C0.956667 72.0107 0.854 71.656 0.854 71.236C0.854 70.7133 1.02667 70.284 1.372 69.948C1.72667 69.6027 2.21667 69.3693 2.842 69.248L5.614 68.702V69.626L3.36 70.088C2.90267 70.1813 2.562 70.312 2.338 70.48C2.114 70.648 2.002 70.8813 2.002 71.18C2.002 71.4693 2.114 71.7073 2.338 71.894C2.57133 72.0713 2.898 72.16 3.318 72.16C3.58867 72.16 3.84533 72.1273 4.088 72.062C4.34 71.9873 4.564 71.88 4.76 71.74C4.956 71.5907 5.11 71.4087 5.222 71.194C5.334 70.97 5.39 70.7087 5.39 70.41V68.478ZM9.23169 73V66H10.2117L10.3097 67.568L10.1277 67.414C10.277 67.0407 10.4777 66.742 10.7297 66.518C10.9817 66.2847 11.271 66.1167 11.5977 66.014C11.9337 65.9113 12.279 65.86 12.6337 65.86C13.1377 65.86 13.595 65.958 14.0057 66.154C14.4164 66.3407 14.743 66.63 14.9857 67.022C15.2377 67.414 15.3637 67.9133 15.3637 68.52V73H14.2437V68.912C14.2437 68.1373 14.0757 67.6007 13.7397 67.302C13.413 66.994 13.007 66.84 12.5217 66.84C12.1857 66.84 11.8497 66.9193 11.5137 67.078C11.1777 67.2367 10.8977 67.4933 10.6737 67.848C10.459 68.2027 10.3517 68.6787 10.3517 69.276V73H9.23169ZM20.6297 73.14C20.051 73.14 19.519 72.9953 19.0337 72.706C18.5483 72.4167 18.161 72.0013 17.8717 71.46C17.5823 70.9093 17.4377 70.256 17.4377 69.5C17.4377 68.7253 17.5917 68.0673 17.8997 67.526C18.2077 66.9847 18.6137 66.574 19.1177 66.294C19.6217 66.0047 20.163 65.86 20.7417 65.86C21.3203 65.86 21.8197 66.0093 22.2397 66.308C22.669 66.6067 22.9537 67.0033 23.0937 67.498L22.9537 67.596V62.78H24.0737V73H23.0937L22.9957 71.306L23.1497 71.222C23.0843 71.6327 22.9257 71.9827 22.6737 72.272C22.431 72.552 22.1277 72.7667 21.7637 72.916C21.409 73.0653 21.031 73.14 20.6297 73.14ZM20.7417 72.16C21.1897 72.16 21.577 72.048 21.9037 71.824C22.2397 71.6 22.4963 71.2827 22.6737 70.872C22.8603 70.452 22.9537 69.962 22.9537 69.402C22.9537 68.87 22.8603 68.4127 22.6737 68.03C22.4963 67.6473 22.2443 67.3533 21.9177 67.148C21.6003 66.9427 21.227 66.84 20.7977 66.84C20.0883 66.84 19.5377 67.0827 19.1457 67.568C18.7537 68.0533 18.5577 68.6973 18.5577 69.5C18.5577 70.3027 18.749 70.9467 19.1317 71.432C19.5143 71.9173 20.051 72.16 20.7417 72.16ZM33.9685 73.14C33.2872 73.14 32.6572 72.9953 32.0785 72.706C31.5092 72.4167 31.0705 72.006 30.7625 71.474L31.7145 70.788C31.9198 71.2173 32.2185 71.5533 32.6105 71.796C33.0118 72.0387 33.4925 72.16 34.0525 72.16C34.5472 72.16 34.9345 72.0667 35.2145 71.88C35.4945 71.684 35.6345 71.432 35.6345 71.124C35.6345 70.928 35.5692 70.7507 35.4385 70.592C35.3172 70.424 35.0792 70.3027 34.7245 70.228L33.0445 69.878C32.3632 69.738 31.8732 69.5047 31.5745 69.178C31.2852 68.8513 31.1405 68.4453 31.1405 67.96C31.1405 67.5773 31.2478 67.2273 31.4625 66.91C31.6865 66.5927 31.9992 66.3407 32.4005 66.154C32.8112 65.958 33.2918 65.86 33.8425 65.86C34.5332 65.86 35.1165 65.9953 35.5925 66.266C36.0685 66.5367 36.4232 66.9193 36.6565 67.414L35.7185 68.03C35.5598 67.6193 35.3032 67.3207 34.9485 67.134C34.5938 66.938 34.2252 66.84 33.8425 66.84C33.5065 66.84 33.2172 66.8867 32.9745 66.98C32.7412 67.0733 32.5592 67.204 32.4285 67.372C32.3072 67.5307 32.2465 67.7127 32.2465 67.918C32.2465 68.1233 32.3165 68.3147 32.4565 68.492C32.5965 68.66 32.8578 68.7813 33.2405 68.856L34.9905 69.22C35.6438 69.3507 36.1012 69.5653 36.3625 69.864C36.6238 70.1627 36.7545 70.5267 36.7545 70.956C36.7545 71.3947 36.6378 71.782 36.4045 72.118C36.1712 72.4447 35.8445 72.6967 35.4245 72.874C35.0045 73.0513 34.5192 73.14 33.9685 73.14ZM38.8313 73V62.78H39.9513V67.05C40.194 66.63 40.516 66.3267 40.9173 66.14C41.3186 65.9533 41.7573 65.86 42.2333 65.86C42.7373 65.86 43.1946 65.958 43.6053 66.154C44.016 66.3407 44.3426 66.63 44.5853 67.022C44.8373 67.414 44.9633 67.9133 44.9633 68.52V73H43.8433V68.912C43.8433 68.1373 43.6753 67.6007 43.3393 67.302C43.0126 66.994 42.6066 66.84 42.1213 66.84C41.7853 66.84 41.4493 66.9193 41.1133 67.078C40.7773 67.2367 40.4973 67.498 40.2733 67.862C40.0586 68.2167 39.9513 68.6927 39.9513 69.29V73H38.8313ZM51.5873 68.478C51.5873 67.9553 51.4473 67.554 51.1673 67.274C50.8873 66.9847 50.4906 66.84 49.9773 66.84C49.4919 66.84 49.0813 66.9473 48.7453 67.162C48.4093 67.3673 48.1619 67.7033 48.0033 68.17L47.0933 67.61C47.2799 67.0873 47.6253 66.6673 48.1293 66.35C48.6333 66.0233 49.2586 65.86 50.0053 65.86C50.5093 65.86 50.9666 65.9487 51.3773 66.126C51.7879 66.294 52.1099 66.5553 52.3433 66.91C52.5859 67.2553 52.7073 67.7033 52.7073 68.254V71.642C52.7073 71.978 52.8846 72.146 53.2393 72.146C53.4166 72.146 53.5893 72.1227 53.7573 72.076L53.7013 72.958C53.5146 73.0513 53.2719 73.098 52.9733 73.098C52.7026 73.098 52.4599 73.0467 52.2453 72.944C52.0306 72.8413 51.8626 72.6873 51.7413 72.482C51.6199 72.2673 51.5593 72.0013 51.5593 71.684V71.544L51.8393 71.586C51.7273 71.95 51.5359 72.2487 51.2653 72.482C50.9946 72.706 50.6913 72.874 50.3553 72.986C50.0193 73.0887 49.6879 73.14 49.3613 73.14C48.9506 73.14 48.5679 73.07 48.2133 72.93C47.8586 72.79 47.5739 72.58 47.3593 72.3C47.1539 72.0107 47.0513 71.656 47.0513 71.236C47.0513 70.7133 47.2239 70.284 47.5693 69.948C47.9239 69.6027 48.4139 69.3693 49.0393 69.248L51.8113 68.702V69.626L49.5573 70.088C49.0999 70.1813 48.7593 70.312 48.5353 70.48C48.3113 70.648 48.1993 70.8813 48.1993 71.18C48.1993 71.4693 48.3113 71.7073 48.5353 71.894C48.7686 72.0713 49.0953 72.16 49.5153 72.16C49.7859 72.16 50.0426 72.1273 50.2853 72.062C50.5373 71.9873 50.7613 71.88 50.9573 71.74C51.1533 71.5907 51.3073 71.4087 51.4193 71.194C51.5313 70.97 51.5873 70.7087 51.5873 70.41V68.478ZM55.429 73V66H56.339L56.493 67.148C56.689 66.7187 56.9736 66.3967 57.347 66.182C57.7296 65.9673 58.1916 65.86 58.733 65.86C58.8543 65.86 58.985 65.8693 59.125 65.888C59.2743 65.9067 59.4003 65.944 59.503 66L59.307 67.022C59.2043 66.9847 59.0923 66.9567 58.971 66.938C58.8496 66.9193 58.677 66.91 58.453 66.91C58.1636 66.91 57.8696 66.994 57.571 67.162C57.2816 67.33 57.039 67.5867 56.843 67.932C56.647 68.268 56.549 68.6973 56.549 69.22V73H55.429ZM63.851 73.14C63.1884 73.14 62.5957 72.9953 62.073 72.706C61.5597 72.4167 61.1584 72.0013 60.869 71.46C60.5797 70.9093 60.435 70.256 60.435 69.5C60.435 68.744 60.5797 68.0953 60.869 67.554C61.1584 67.0033 61.555 66.5833 62.059 66.294C62.563 66.0047 63.137 65.86 63.781 65.86C64.4344 65.86 64.9897 66 65.447 66.28C65.9137 66.56 66.2684 66.9427 66.511 67.428C66.7537 67.904 66.875 68.4407 66.875 69.038C66.875 69.1967 66.8704 69.3413 66.861 69.472C66.8517 69.6027 66.8377 69.7193 66.819 69.822H61.163V68.828H66.329L65.755 68.94C65.755 68.268 65.5684 67.75 65.195 67.386C64.831 67.022 64.3504 66.84 63.753 66.84C63.2957 66.84 62.899 66.9473 62.563 67.162C62.2364 67.3673 61.9797 67.6707 61.793 68.072C61.6157 68.464 61.527 68.94 61.527 69.5C61.527 70.0507 61.6204 70.5267 61.807 70.928C61.9937 71.3293 62.255 71.6373 62.591 71.852C62.9364 72.0573 63.347 72.16 63.823 72.16C64.3364 72.16 64.7517 72.062 65.069 71.866C65.3957 71.67 65.657 71.404 65.853 71.068L66.735 71.586C66.5577 71.9033 66.329 72.1787 66.049 72.412C65.7784 72.6453 65.4564 72.8273 65.083 72.958C64.719 73.0793 64.3084 73.14 63.851 73.14ZM73.7766 73V62.78H74.8966V67.05C75.1393 66.63 75.4613 66.3267 75.8626 66.14C76.2639 65.9533 76.7026 65.86 77.1786 65.86C77.6826 65.86 78.1399 65.958 78.5506 66.154C78.9613 66.3407 79.2879 66.63 79.5306 67.022C79.7826 67.414 79.9086 67.9133 79.9086 68.52V73H78.7886V68.912C78.7886 68.1373 78.6206 67.6007 78.2846 67.302C77.9579 66.994 77.5519 66.84 77.0666 66.84C76.7306 66.84 76.3946 66.9193 76.0586 67.078C75.7226 67.2367 75.4426 67.498 75.2186 67.862C75.0039 68.2167 74.8966 68.6927 74.8966 69.29V73H73.7766ZM85.3706 73.14C84.7079 73.14 84.1152 72.9953 83.5926 72.706C83.0792 72.4167 82.6779 72.0013 82.3886 71.46C82.0992 70.9093 81.9546 70.256 81.9546 69.5C81.9546 68.744 82.0992 68.0953 82.3886 67.554C82.6779 67.0033 83.0746 66.5833 83.5786 66.294C84.0826 66.0047 84.6566 65.86 85.3006 65.86C85.9539 65.86 86.5092 66 86.9666 66.28C87.4332 66.56 87.7879 66.9427 88.0306 67.428C88.2732 67.904 88.3946 68.4407 88.3946 69.038C88.3946 69.1967 88.3899 69.3413 88.3806 69.472C88.3712 69.6027 88.3572 69.7193 88.3386 69.822H82.6826V68.828H87.8486L87.2746 68.94C87.2746 68.268 87.0879 67.75 86.7146 67.386C86.3506 67.022 85.8699 66.84 85.2726 66.84C84.8152 66.84 84.4186 66.9473 84.0826 67.162C83.7559 67.3673 83.4992 67.6707 83.3126 68.072C83.1352 68.464 83.0466 68.94 83.0466 69.5C83.0466 70.0507 83.1399 70.5267 83.3266 70.928C83.5132 71.3293 83.7746 71.6373 84.1106 71.852C84.4559 72.0573 84.8666 72.16 85.3426 72.16C85.8559 72.16 86.2712 72.062 86.5886 71.866C86.9152 71.67 87.1766 71.404 87.3726 71.068L88.2546 71.586C88.0772 71.9033 87.8486 72.1787 87.5686 72.412C87.2979 72.6453 86.9759 72.8273 86.6026 72.958C86.2386 73.0793 85.8279 73.14 85.3706 73.14ZM91.5887 62.78V71.222C91.5887 71.5767 91.654 71.824 91.7847 71.964C91.9153 72.0947 92.1253 72.16 92.4147 72.16C92.6013 72.16 92.7553 72.146 92.8767 72.118C92.998 72.09 93.1613 72.0387 93.3667 71.964L93.1847 72.944C93.0353 73.0093 92.872 73.056 92.6947 73.084C92.5173 73.1213 92.3353 73.14 92.1487 73.14C91.5793 73.14 91.1547 72.986 90.8747 72.678C90.604 72.37 90.4687 71.8987 90.4687 71.264V62.78H91.5887ZM94.804 75.94V66H95.784L95.882 67.708L95.728 67.512C95.8493 67.1853 96.0313 66.9007 96.274 66.658C96.5166 66.406 96.8106 66.21 97.156 66.07C97.5013 65.93 97.8746 65.86 98.276 65.86C98.8453 65.86 99.368 66.0047 99.844 66.294C100.329 66.5833 100.717 66.9987 101.006 67.54C101.295 68.0813 101.44 68.7347 101.44 69.5C101.44 70.256 101.291 70.9093 100.992 71.46C100.703 72.0013 100.315 72.4167 99.83 72.706C99.3446 72.9953 98.8126 73.14 98.234 73.14C97.6553 73.14 97.1466 73 96.708 72.72C96.2786 72.4307 95.9706 72.0667 95.784 71.628L95.924 71.418V75.94H94.804ZM98.122 72.16C98.8126 72.16 99.3493 71.9173 99.732 71.432C100.124 70.9467 100.32 70.3027 100.32 69.5C100.32 68.6973 100.129 68.0533 99.746 67.568C99.3726 67.0827 98.8453 66.84 98.164 66.84C97.716 66.84 97.324 66.952 96.988 67.176C96.652 67.3907 96.3906 67.6987 96.204 68.1C96.0173 68.492 95.924 68.9587 95.924 69.5C95.924 70.032 96.0126 70.4987 96.19 70.9C96.3766 71.3013 96.6333 71.614 96.96 71.838C97.296 72.0527 97.6833 72.16 98.122 72.16ZM112.631 66H113.807L110.895 73H109.775L106.863 66H108.137L110.349 71.866L112.631 66ZM115.831 64.656C115.579 64.656 115.373 64.5813 115.215 64.432C115.065 64.2733 114.991 64.068 114.991 63.816C114.991 63.564 115.065 63.3633 115.215 63.214C115.373 63.0553 115.579 62.976 115.831 62.976C116.083 62.976 116.283 63.0553 116.433 63.214C116.591 63.3633 116.671 63.564 116.671 63.816C116.671 64.068 116.591 64.2733 116.433 64.432C116.283 64.5813 116.083 64.656 115.831 64.656ZM116.391 66V73H115.271V66H116.391ZM121.72 73.14C121.141 73.14 120.609 72.9953 120.124 72.706C119.638 72.4167 119.251 72.0013 118.962 71.46C118.672 70.9093 118.528 70.256 118.528 69.5C118.528 68.7253 118.682 68.0673 118.99 67.526C119.298 66.9847 119.704 66.574 120.208 66.294C120.712 66.0047 121.253 65.86 121.832 65.86C122.41 65.86 122.91 66.0093 123.33 66.308C123.759 66.6067 124.044 67.0033 124.184 67.498L124.044 67.596V62.78H125.164V73H124.184L124.086 71.306L124.24 71.222C124.174 71.6327 124.016 71.9827 123.764 72.272C123.521 72.552 123.218 72.7667 122.854 72.916C122.499 73.0653 122.121 73.14 121.72 73.14ZM121.832 72.16C122.28 72.16 122.667 72.048 122.994 71.824C123.33 71.6 123.586 71.2827 123.764 70.872C123.95 70.452 124.044 69.962 124.044 69.402C124.044 68.87 123.95 68.4127 123.764 68.03C123.586 67.6473 123.334 67.3533 123.008 67.148C122.69 66.9427 122.317 66.84 121.888 66.84C121.178 66.84 120.628 67.0827 120.236 67.568C119.844 68.0533 119.648 68.6973 119.648 69.5C119.648 70.3027 119.839 70.9467 120.222 71.432C120.604 71.9173 121.141 72.16 121.832 72.16ZM130.693 73.14C130.03 73.14 129.438 72.9953 128.915 72.706C128.402 72.4167 128 72.0013 127.711 71.46C127.422 70.9093 127.277 70.256 127.277 69.5C127.277 68.744 127.422 68.0953 127.711 67.554C128 67.0033 128.397 66.5833 128.901 66.294C129.405 66.0047 129.979 65.86 130.623 65.86C131.276 65.86 131.832 66 132.289 66.28C132.756 66.56 133.11 66.9427 133.353 67.428C133.596 67.904 133.717 68.4407 133.717 69.038C133.717 69.1967 133.712 69.3413 133.703 69.472C133.694 69.6027 133.68 69.7193 133.661 69.822H128.005V68.828H133.171L132.597 68.94C132.597 68.268 132.41 67.75 132.037 67.386C131.673 67.022 131.192 66.84 130.595 66.84C130.138 66.84 129.741 66.9473 129.405 67.162C129.078 67.3673 128.822 67.6707 128.635 68.072C128.458 68.464 128.369 68.94 128.369 69.5C128.369 70.0507 128.462 70.5267 128.649 70.928C128.836 71.3293 129.097 71.6373 129.433 71.852C129.778 72.0573 130.189 72.16 130.665 72.16C131.178 72.16 131.594 72.062 131.911 71.866C132.238 71.67 132.499 71.404 132.695 71.068L133.577 71.586C133.4 71.9033 133.171 72.1787 132.891 72.412C132.62 72.6453 132.298 72.8273 131.925 72.958C131.561 73.0793 131.15 73.14 130.693 73.14ZM138.745 65.86C139.408 65.86 139.991 66.0047 140.495 66.294C141.008 66.5833 141.41 67.0033 141.699 67.554C141.988 68.0953 142.133 68.744 142.133 69.5C142.133 70.256 141.988 70.9093 141.699 71.46C141.41 72.0013 141.008 72.4167 140.495 72.706C139.991 72.9953 139.408 73.14 138.745 73.14C138.092 73.14 137.508 72.9953 136.995 72.706C136.482 72.4167 136.08 72.0013 135.791 71.46C135.502 70.9093 135.357 70.256 135.357 69.5C135.357 68.744 135.502 68.0953 135.791 67.554C136.08 67.0033 136.482 66.5833 136.995 66.294C137.508 66.0047 138.092 65.86 138.745 65.86ZM138.745 66.826C138.269 66.826 137.863 66.9333 137.527 67.148C137.191 67.3627 136.93 67.6707 136.743 68.072C136.566 68.464 136.477 68.94 136.477 69.5C136.477 70.0507 136.566 70.5267 136.743 70.928C136.93 71.3293 137.191 71.6373 137.527 71.852C137.863 72.0667 138.269 72.174 138.745 72.174C139.221 72.174 139.627 72.0667 139.963 71.852C140.299 71.6373 140.556 71.3293 140.733 70.928C140.92 70.5267 141.013 70.0507 141.013 69.5C141.013 68.94 140.92 68.464 140.733 68.072C140.556 67.6707 140.299 67.3627 139.963 67.148C139.627 66.9333 139.221 66.826 138.745 66.826ZM146.761 73.14C146.08 73.14 145.45 72.9953 144.871 72.706C144.302 72.4167 143.863 72.006 143.555 71.474L144.507 70.788C144.713 71.2173 145.011 71.5533 145.403 71.796C145.805 72.0387 146.285 72.16 146.845 72.16C147.34 72.16 147.727 72.0667 148.007 71.88C148.287 71.684 148.427 71.432 148.427 71.124C148.427 70.928 148.362 70.7507 148.231 70.592C148.11 70.424 147.872 70.3027 147.517 70.228L145.837 69.878C145.156 69.738 144.666 69.5047 144.367 69.178C144.078 68.8513 143.933 68.4453 143.933 67.96C143.933 67.5773 144.041 67.2273 144.255 66.91C144.479 66.5927 144.792 66.3407 145.193 66.154C145.604 65.958 146.085 65.86 146.635 65.86C147.326 65.86 147.909 65.9953 148.385 66.266C148.861 66.5367 149.216 66.9193 149.449 67.414L148.511 68.03C148.353 67.6193 148.096 67.3207 147.741 67.134C147.387 66.938 147.018 66.84 146.635 66.84C146.299 66.84 146.01 66.8867 145.767 66.98C145.534 67.0733 145.352 67.204 145.221 67.372C145.1 67.5307 145.039 67.7127 145.039 67.918C145.039 68.1233 145.109 68.3147 145.249 68.492C145.389 68.66 145.651 68.7813 146.033 68.856L147.783 69.22C148.437 69.3507 148.894 69.5653 149.155 69.864C149.417 70.1627 149.547 70.5267 149.547 70.956C149.547 71.3947 149.431 71.782 149.197 72.118C148.964 72.4447 148.637 72.6967 148.217 72.874C147.797 73.0513 147.312 73.14 146.761 73.14ZM164.859 66H166.105L163.669 73H162.549L160.575 67.428L158.713 73H157.593L155.157 66H156.403L158.167 71.698L160.071 66H161.191L163.095 71.698L164.859 66ZM168.344 64.656C168.092 64.656 167.887 64.5813 167.728 64.432C167.579 64.2733 167.504 64.068 167.504 63.816C167.504 63.564 167.579 63.3633 167.728 63.214C167.887 63.0553 168.092 62.976 168.344 62.976C168.596 62.976 168.797 63.0553 168.946 63.214C169.105 63.3633 169.184 63.564 169.184 63.816C169.184 64.068 169.105 64.2733 168.946 64.432C168.797 64.5813 168.596 64.656 168.344 64.656ZM168.904 66V73H167.784V66H168.904ZM173.155 64.012V71.068C173.155 71.4133 173.253 71.67 173.449 71.838C173.645 72.006 173.897 72.09 174.205 72.09C174.476 72.09 174.709 72.0433 174.905 71.95C175.101 71.8567 175.279 71.7307 175.437 71.572L175.829 72.51C175.615 72.706 175.358 72.86 175.059 72.972C174.77 73.084 174.434 73.14 174.051 73.14C173.697 73.14 173.365 73.0793 173.057 72.958C172.749 72.8273 172.502 72.6267 172.315 72.356C172.138 72.076 172.045 71.712 172.035 71.264V64.32L173.155 64.012ZM175.703 66V66.966H170.635V66H175.703ZM177.368 73V62.78H178.488V67.05C178.731 66.63 179.053 66.3267 179.454 66.14C179.856 65.9533 180.294 65.86 180.77 65.86C181.274 65.86 181.732 65.958 182.142 66.154C182.553 66.3407 182.88 66.63 183.122 67.022C183.374 67.414 183.5 67.9133 183.5 68.52V73H182.38V68.912C182.38 68.1373 182.212 67.6007 181.876 67.302C181.55 66.994 181.144 66.84 180.658 66.84C180.322 66.84 179.986 66.9193 179.65 67.078C179.314 67.2367 179.034 67.498 178.81 67.862C178.596 68.2167 178.488 68.6927 178.488 69.29V73H177.368ZM193.734 73.14C193.071 73.14 192.479 72.9953 191.956 72.706C191.443 72.4167 191.041 72.0013 190.752 71.46C190.463 70.9093 190.318 70.256 190.318 69.5C190.318 68.744 190.463 68.0953 190.752 67.554C191.041 67.0033 191.438 66.5833 191.942 66.294C192.446 66.0047 193.02 65.86 193.664 65.86C194.317 65.86 194.873 66 195.33 66.28C195.797 66.56 196.151 66.9427 196.394 67.428C196.637 67.904 196.758 68.4407 196.758 69.038C196.758 69.1967 196.753 69.3413 196.744 69.472C196.735 69.6027 196.721 69.7193 196.702 69.822H191.046V68.828H196.212L195.638 68.94C195.638 68.268 195.451 67.75 195.078 67.386C194.714 67.022 194.233 66.84 193.636 66.84C193.179 66.84 192.782 66.9473 192.446 67.162C192.119 67.3673 191.863 67.6707 191.676 68.072C191.499 68.464 191.41 68.94 191.41 69.5C191.41 70.0507 191.503 70.5267 191.69 70.928C191.877 71.3293 192.138 71.6373 192.474 71.852C192.819 72.0573 193.23 72.16 193.706 72.16C194.219 72.16 194.635 72.062 194.952 71.866C195.279 71.67 195.54 71.404 195.736 71.068L196.618 71.586C196.441 71.9033 196.212 72.1787 195.932 72.412C195.661 72.6453 195.339 72.8273 194.966 72.958C194.602 73.0793 194.191 73.14 193.734 73.14ZM202.976 68.478C202.976 67.9553 202.836 67.554 202.556 67.274C202.276 66.9847 201.879 66.84 201.366 66.84C200.881 66.84 200.47 66.9473 200.134 67.162C199.798 67.3673 199.551 67.7033 199.392 68.17L198.482 67.61C198.669 67.0873 199.014 66.6673 199.518 66.35C200.022 66.0233 200.647 65.86 201.394 65.86C201.898 65.86 202.355 65.9487 202.766 66.126C203.177 66.294 203.499 66.5553 203.732 66.91C203.975 67.2553 204.096 67.7033 204.096 68.254V71.642C204.096 71.978 204.273 72.146 204.628 72.146C204.805 72.146 204.978 72.1227 205.146 72.076L205.09 72.958C204.903 73.0513 204.661 73.098 204.362 73.098C204.091 73.098 203.849 73.0467 203.634 72.944C203.419 72.8413 203.251 72.6873 203.13 72.482C203.009 72.2673 202.948 72.0013 202.948 71.684V71.544L203.228 71.586C203.116 71.95 202.925 72.2487 202.654 72.482C202.383 72.706 202.08 72.874 201.744 72.986C201.408 73.0887 201.077 73.14 200.75 73.14C200.339 73.14 199.957 73.07 199.602 72.93C199.247 72.79 198.963 72.58 198.748 72.3C198.543 72.0107 198.44 71.656 198.44 71.236C198.44 70.7133 198.613 70.284 198.958 69.948C199.313 69.6027 199.803 69.3693 200.428 69.248L203.2 68.702V69.626L200.946 70.088C200.489 70.1813 200.148 70.312 199.924 70.48C199.7 70.648 199.588 70.8813 199.588 71.18C199.588 71.4693 199.7 71.7073 199.924 71.894C200.157 72.0713 200.484 72.16 200.904 72.16C201.175 72.16 201.431 72.1273 201.674 72.062C201.926 71.9873 202.15 71.88 202.346 71.74C202.542 71.5907 202.696 71.4087 202.808 71.194C202.92 70.97 202.976 70.7087 202.976 70.41V68.478ZM209.338 73.14C208.656 73.14 208.026 72.9953 207.448 72.706C206.878 72.4167 206.44 72.006 206.132 71.474L207.084 70.788C207.289 71.2173 207.588 71.5533 207.98 71.796C208.381 72.0387 208.862 72.16 209.422 72.16C209.916 72.16 210.304 72.0667 210.584 71.88C210.864 71.684 211.004 71.432 211.004 71.124C211.004 70.928 210.938 70.7507 210.808 70.592C210.686 70.424 210.448 70.3027 210.094 70.228L208.414 69.878C207.732 69.738 207.242 69.5047 206.944 69.178C206.654 68.8513 206.51 68.4453 206.51 67.96C206.51 67.5773 206.617 67.2273 206.832 66.91C207.056 66.5927 207.368 66.3407 207.77 66.154C208.18 65.958 208.661 65.86 209.212 65.86C209.902 65.86 210.486 65.9953 210.962 66.266C211.438 66.5367 211.792 66.9193 212.026 67.414L211.088 68.03C210.929 67.6193 210.672 67.3207 210.318 67.134C209.963 66.938 209.594 66.84 209.212 66.84C208.876 66.84 208.586 66.8867 208.344 66.98C208.11 67.0733 207.928 67.204 207.798 67.372C207.676 67.5307 207.616 67.7127 207.616 67.918C207.616 68.1233 207.686 68.3147 207.826 68.492C207.966 68.66 208.227 68.7813 208.61 68.856L210.36 69.22C211.013 69.3507 211.47 69.5653 211.732 69.864C211.993 70.1627 212.124 70.5267 212.124 70.956C212.124 71.3947 212.007 71.782 211.774 72.118C211.54 72.4447 211.214 72.6967 210.794 72.874C210.374 73.0513 209.888 73.14 209.338 73.14ZM217.126 73.14C216.464 73.14 215.871 72.9953 215.348 72.706C214.835 72.4167 214.434 72.0013 214.144 71.46C213.855 70.9093 213.71 70.256 213.71 69.5C213.71 68.744 213.855 68.0953 214.144 67.554C214.434 67.0033 214.83 66.5833 215.334 66.294C215.838 66.0047 216.412 65.86 217.056 65.86C217.71 65.86 218.265 66 218.722 66.28C219.189 66.56 219.544 66.9427 219.786 67.428C220.029 67.904 220.15 68.4407 220.15 69.038C220.15 69.1967 220.146 69.3413 220.136 69.472C220.127 69.6027 220.113 69.7193 220.094 69.822H214.438V68.828H219.604L219.03 68.94C219.03 68.268 218.844 67.75 218.47 67.386C218.106 67.022 217.626 66.84 217.028 66.84C216.571 66.84 216.174 66.9473 215.838 67.162C215.512 67.3673 215.255 67.6707 215.068 68.072C214.891 68.464 214.802 68.94 214.802 69.5C214.802 70.0507 214.896 70.5267 215.082 70.928C215.269 71.3293 215.53 71.6373 215.866 71.852C216.212 72.0573 216.622 72.16 217.098 72.16C217.612 72.16 218.027 72.062 218.344 71.866C218.671 71.67 218.932 71.404 219.128 71.068L220.01 71.586C219.833 71.9033 219.604 72.1787 219.324 72.412C219.054 72.6453 218.732 72.8273 218.358 72.958C217.994 73.0793 217.584 73.14 217.126 73.14ZM222.841 71.32C223.111 71.32 223.331 71.404 223.499 71.572C223.667 71.74 223.751 71.9593 223.751 72.23C223.751 72.5007 223.667 72.72 223.499 72.888C223.331 73.056 223.111 73.14 222.841 73.14C222.57 73.14 222.351 73.056 222.183 72.888C222.015 72.72 221.931 72.5007 221.931 72.23C221.931 71.9593 222.015 71.74 222.183 71.572C222.351 71.404 222.57 71.32 222.841 71.32Z" fill="#413C6D"/>
<defs>
<clipPath id="clip0_588_910">
<rect width="28" height="28" fill="white"/>
</clipPath>
</defs>
</svg>
