<svg width="85" height="24" viewBox="0 0 85 24" fill="none" xmlns="http://www.w3.org/2000/svg">
<path d="M15.75 10.5L20.4697 5.78033C20.9421 5.30786 21.75 5.64248 21.75 6.31066V17.6893C21.75 18.3575 20.9421 18.6921 20.4697 18.2197L15.75 13.5M4.5 18.75H13.5C14.7426 18.75 15.75 17.7426 15.75 16.5V7.5C15.75 6.25736 14.7426 5.25 13.5 5.25H4.5C3.25736 5.25 2.25 6.25736 2.25 7.5V16.5C2.25 17.7426 3.25736 18.75 4.5 18.75Z" stroke="#0F172A" stroke-width="1.5" stroke-linecap="round" stroke-linejoin="round"/>
<path d="M41.03 14.55C40.8433 15.11 40.5633 15.586 40.19 15.978C39.8167 16.3607 39.378 16.65 38.874 16.846C38.37 17.042 37.8147 17.14 37.208 17.14C36.3213 17.14 35.5513 16.9487 34.898 16.566C34.2447 16.1833 33.7407 15.6373 33.386 14.928C33.0313 14.2187 32.854 13.3693 32.854 12.38C32.854 11.3907 33.0313 10.5413 33.386 9.832C33.7407 9.12267 34.2447 8.57667 34.898 8.194C35.5513 7.81133 36.3167 7.62 37.194 7.62C37.8007 7.62 38.3467 7.704 38.832 7.872C39.3267 8.04 39.7467 8.292 40.092 8.628C40.4373 8.964 40.7033 9.384 40.89 9.888L39.476 10.518C39.2893 9.96733 39.0187 9.566 38.664 9.314C38.3093 9.05267 37.8473 8.922 37.278 8.922C36.7087 8.922 36.2093 9.05733 35.78 9.328C35.3507 9.59867 35.0147 9.99067 34.772 10.504C34.5387 11.0173 34.422 11.6427 34.422 12.38C34.422 13.108 34.534 13.7333 34.758 14.256C34.982 14.7693 35.304 15.1613 35.724 15.432C36.144 15.7027 36.648 15.838 37.236 15.838C37.8053 15.838 38.2953 15.6933 38.706 15.404C39.126 15.1053 39.4247 14.662 39.602 14.074L41.03 14.55ZM46.7783 12.506C46.7783 12.0393 46.6476 11.68 46.3863 11.428C46.1343 11.1667 45.7843 11.036 45.3363 11.036C44.9163 11.036 44.557 11.134 44.2583 11.33C43.9596 11.526 43.7403 11.8433 43.6003 12.282L42.3403 11.75C42.5176 11.1807 42.863 10.7233 43.3763 10.378C43.899 10.0327 44.571 9.86 45.3923 9.86C45.9523 9.86 46.447 9.95333 46.8763 10.14C47.3056 10.3173 47.6416 10.588 47.8843 10.952C48.1363 11.316 48.2623 11.7827 48.2623 12.352V15.474C48.2623 15.8193 48.435 15.992 48.7803 15.992C48.9483 15.992 49.1116 15.9687 49.2703 15.922L49.1863 16.958C48.9716 17.0607 48.701 17.112 48.3743 17.112C48.0756 17.112 47.805 17.0607 47.5623 16.958C47.329 16.846 47.1423 16.6827 47.0023 16.468C46.8716 16.244 46.8063 15.9687 46.8063 15.642V15.544L47.1143 15.53C47.0303 15.894 46.8576 16.1973 46.5963 16.44C46.335 16.6733 46.0316 16.8507 45.6863 16.972C45.341 17.084 44.991 17.14 44.6363 17.14C44.1976 17.14 43.801 17.07 43.4463 16.93C43.101 16.79 42.8256 16.58 42.6203 16.3C42.4243 16.0107 42.3263 15.656 42.3263 15.236C42.3263 14.7133 42.4943 14.284 42.8303 13.948C43.1756 13.612 43.661 13.3833 44.2863 13.262L47.0023 12.73L46.9883 13.78L45.0143 14.186C44.6223 14.2607 44.3283 14.368 44.1323 14.508C43.9363 14.648 43.8383 14.8533 43.8383 15.124C43.8383 15.3853 43.9363 15.5953 44.1323 15.754C44.3376 15.9033 44.6083 15.978 44.9443 15.978C45.1776 15.978 45.4016 15.95 45.6163 15.894C45.8403 15.838 46.041 15.7493 46.2183 15.628C46.3956 15.4973 46.531 15.334 46.6243 15.138C46.727 14.9327 46.7783 14.69 46.7783 14.41V12.506ZM50.7167 17V10H52.0467L52.1167 11.176C52.3594 10.728 52.6814 10.3967 53.0827 10.182C53.4934 9.96733 53.9274 9.86 54.3847 9.86C54.8887 9.86 55.3507 9.97667 55.7707 10.21C56.2 10.434 56.522 10.7747 56.7367 11.232C56.886 10.924 57.0914 10.6673 57.3527 10.462C57.614 10.2567 57.9034 10.1073 58.2207 10.014C58.538 9.91133 58.8507 9.86 59.1587 9.86C59.6067 9.86 60.0267 9.95333 60.4187 10.14C60.8107 10.3267 61.128 10.6113 61.3707 10.994C61.6134 11.3767 61.7347 11.8667 61.7347 12.464V17H60.2367V12.702C60.2367 12.1327 60.1014 11.722 59.8307 11.47C59.56 11.218 59.2147 11.092 58.7947 11.092C58.468 11.092 58.1647 11.1713 57.8847 11.33C57.614 11.4887 57.3947 11.7267 57.2267 12.044C57.0587 12.352 56.9747 12.7347 56.9747 13.192V17H55.4767V12.702C55.4767 12.1327 55.3414 11.722 55.0707 11.47C54.8 11.218 54.4547 11.092 54.0347 11.092C53.7547 11.092 53.4747 11.1667 53.1947 11.316C52.9147 11.4653 52.6814 11.6987 52.4947 12.016C52.308 12.3333 52.2147 12.7533 52.2147 13.276V17H50.7167ZM67.0858 17.14C66.3858 17.14 65.7698 16.9953 65.2378 16.706C64.7058 16.4167 64.2904 16.0013 63.9918 15.46C63.7024 14.9093 63.5578 14.256 63.5578 13.5C63.5578 12.744 63.7024 12.0953 63.9918 11.554C64.2904 11.0033 64.7011 10.5833 65.2238 10.294C65.7464 10.0047 66.3391 9.86 67.0018 9.86C67.6831 9.86 68.2618 10 68.7378 10.28C69.2138 10.56 69.5778 10.9427 69.8298 11.428C70.0818 11.9133 70.2078 12.464 70.2078 13.08C70.2078 13.248 70.2031 13.4067 70.1938 13.556C70.1844 13.7053 70.1704 13.836 70.1518 13.948H64.5238V12.8H69.4938L68.7518 13.024C68.7518 12.3893 68.5931 11.904 68.2758 11.568C67.9584 11.2227 67.5244 11.05 66.9738 11.05C66.5724 11.05 66.2224 11.1433 65.9238 11.33C65.6251 11.5167 65.3964 11.7967 65.2378 12.17C65.0791 12.534 64.9998 12.982 64.9998 13.514C64.9998 14.0367 65.0838 14.48 65.2518 14.844C65.4198 15.208 65.6578 15.4833 65.9658 15.67C66.2738 15.8567 66.6378 15.95 67.0578 15.95C67.5244 15.95 67.9024 15.8613 68.1918 15.684C68.4811 15.5067 68.7098 15.2593 68.8778 14.942L70.0678 15.502C69.8998 15.838 69.6711 16.132 69.3818 16.384C69.1018 16.6267 68.7658 16.8133 68.3738 16.944C67.9818 17.0747 67.5524 17.14 67.0858 17.14ZM72.0995 17V10H73.3735L73.5135 11.26C73.7002 10.8027 73.9755 10.4573 74.3395 10.224C74.7128 9.98133 75.1702 9.86 75.7115 9.86C75.8515 9.86 75.9915 9.874 76.1315 9.902C76.2715 9.92067 76.3882 9.95333 76.4815 10L76.2715 11.316C76.1688 11.2787 76.0522 11.2507 75.9215 11.232C75.8002 11.204 75.6322 11.19 75.4175 11.19C75.1282 11.19 74.8435 11.2693 74.5635 11.428C74.2835 11.5773 74.0502 11.806 73.8635 12.114C73.6862 12.422 73.5975 12.814 73.5975 13.29V17H72.0995ZM81.792 12.506C81.792 12.0393 81.6613 11.68 81.4 11.428C81.148 11.1667 80.798 11.036 80.35 11.036C79.93 11.036 79.5707 11.134 79.272 11.33C78.9733 11.526 78.754 11.8433 78.614 12.282L77.354 11.75C77.5313 11.1807 77.8767 10.7233 78.39 10.378C78.9127 10.0327 79.5847 9.86 80.406 9.86C80.966 9.86 81.4607 9.95333 81.89 10.14C82.3193 10.3173 82.6553 10.588 82.898 10.952C83.15 11.316 83.276 11.7827 83.276 12.352V15.474C83.276 15.8193 83.4487 15.992 83.794 15.992C83.962 15.992 84.1253 15.9687 84.284 15.922L84.2 16.958C83.9853 17.0607 83.7147 17.112 83.388 17.112C83.0893 17.112 82.8187 17.0607 82.576 16.958C82.3427 16.846 82.156 16.6827 82.016 16.468C81.8853 16.244 81.82 15.9687 81.82 15.642V15.544L82.128 15.53C82.044 15.894 81.8713 16.1973 81.61 16.44C81.3487 16.6733 81.0453 16.8507 80.7 16.972C80.3547 17.084 80.0047 17.14 79.65 17.14C79.2113 17.14 78.8147 17.07 78.46 16.93C78.1147 16.79 77.8393 16.58 77.634 16.3C77.438 16.0107 77.34 15.656 77.34 15.236C77.34 14.7133 77.508 14.284 77.844 13.948C78.1893 13.612 78.6747 13.3833 79.3 13.262L82.016 12.73L82.002 13.78L80.028 14.186C79.636 14.2607 79.342 14.368 79.146 14.508C78.95 14.648 78.852 14.8533 78.852 15.124C78.852 15.3853 78.95 15.5953 79.146 15.754C79.3513 15.9033 79.622 15.978 79.958 15.978C80.1913 15.978 80.4153 15.95 80.63 15.894C80.854 15.838 81.0547 15.7493 81.232 15.628C81.4093 15.4973 81.5447 15.334 81.638 15.138C81.7407 14.9327 81.792 14.69 81.792 14.41V12.506Z" fill="#100A42"/>
</svg>
